<svg xmlns="http://www.w3.org/2000/svg" viewBox="0 0 36 36">
  <path fill="#664500" d="M 22 30 z m 8.001 -19 c -0.305 0 -0.604 -0.138 -0.801 -0.4 c -2.64 -3.521 -6.061 -3.598 -6.206 -3.6 c -0.55 -0.006 -0.994 -0.456 -0.991 -1.005 C 22.006 5.444 22.45 5 23 5 c 0.184 0 4.537 0.05 7.8 4.4 c 0.332 0.442 0.242 1.069 -0.2 1.4 c -0.18 0.135 -0.39 0.2 -0.599 0.2 z M 5.999 11 c -0.208 0 -0.419 -0.065 -0.599 -0.2 c -0.442 -0.331 -0.531 -0.958 -0.2 -1.4 C 8.462 5.05 12.816 5 13 5 c 0.552 0 1 0.448 1 1 c 0 0.551 -0.445 0.998 -0.996 1 c -0.155 0.002 -3.568 0.086 -6.204 3.6 c -0.196 0.262 -0.497 0.4 -0.801 0.4 z"/>
</svg>
