<svg xmlns="http://www.w3.org/2000/svg" viewBox="0 0 36 36"><path fill="#664500" d="M9.998 10c-.448 0-.855-.303-.969-.757-.133-.535.191-1.077.724-1.212.036-.009 3.593-.961 5.352-4.478.247-.494.846-.695 1.342-.447.494.247.694.848.447 1.342-2.181 4.361-6.471 5.477-6.652 5.523-.081.02-.163.029-.244.029zM26 10c-.08 0-.161-.01-.242-.03-.182-.045-4.472-1.162-6.652-5.523-.247-.494-.047-1.095.447-1.342.493-.247 1.094-.047 1.342.447 1.758 3.517 5.315 4.469 5.352 4.478.533.137.857.681.722 1.215-.116.453-.522.755-.969.755zm-8 18.965c-3.623"/></svg>
