<svg xmlns="http://www.w3.org/2000/svg" viewBox="0 0 36 36">
  <path fill="#664500" d="M 28.457 17.797 z M 5.999 11 c -0.208 0 -0.419 -0.065 -0.599 -0.2 c -0.442 -0.331 -0.531 -0.958 -0.2 -1.4 C 8.462 5.05 12.816 5 13 5 c 0.552 0 1 0.448 1 1 c 0 0.551 -0.445 0.998 -0.996 1 c -0.155 0.002 -3.568 0.086 -6.204 3.6 c -0.196 0.262 -0.497 0.4 -0.801 0.4 z m 23.002 3 c -0.305 0 -0.604 -0.138 -0.801 -0.4 c -2.592 -3.456 -6.961 -2.628 -7.004 -2.62 c -0.547 0.11 -1.068 -0.244 -1.177 -0.784 c -0.108 -0.541 0.243 -1.068 0.784 -1.177 c 0.231 -0.047 5.657 -1.072 8.996 3.38 c 0.332 0.442 0.242 1.069 -0.2 1.4 c -0.179 0.136 -0.389 0.201 -0.598 0.201 z l -0.019 0.011 z"/>
</svg>
