<svg xmlns="http://www.w3.org/2000/svg" viewBox="0 0 36 36">
  <path fill="#664500" d="M 29 10 z M 7 10 z m -0.999 13 c -0.304 0 -0.604 -0.138 -0.801 -0.4 c -0.332 -0.441 -0.242 -1.068 0.2 -1.399 c 0.143 -0.107 2.951 -2.183 6.856 -2.933 C 9.781 17.027 7.034 17 6.999 17 c -0.552 -0.001 -0.999 -0.45 -0.998 -1.002 c 0 -0.551 0.447 -0.998 0.999 -0.998 c 0.221 0 5.452 0.038 8.707 3.293 c 0.286 0.286 0.372 0.716 0.217 1.09 c -0.155 0.374 -0.52 0.617 -0.924 0.617 c -4.613 0 -8.363 2.772 -8.4 2.8 c -0.18 0.135 -0.391 0.2 -0.599 0.2 z m 23.998 -0.001 c -0.208 0 -0.418 -0.064 -0.598 -0.198 C 29.363 22.772 25.59 20 21 20 c -0.404 0 -0.77 -0.243 -0.924 -0.617 c -0.155 -0.374 -0.069 -0.804 0.217 -1.09 C 23.549 15.038 28.779 15 29 15 c 0.552 0 0.998 0.447 0.999 0.998 c 0.001 0.552 -0.446 1 -0.997 1.002 c -0.036 0 -2.783 0.027 -5.258 1.268 c 3.905 0.75 6.713 2.825 6.855 2.933 c 0.441 0.331 0.531 0.956 0.201 1.398 c -0.196 0.261 -0.496 0.4 -0.801 0.4 z z"/>
</svg>
