<svg xmlns="http://www.w3.org/2000/svg" viewBox="0 0 36 36">
  <path fill="#664500" d="M 24.327 23.622 z z M 4.999 16 z m 10.898 1.396 c 0.023 -0.052 0.059 -0.096 0.073 -0.154 c 0.134 -0.536 -0.192 -1.079 -0.727 -1.213 c -0.18 -0.045 -4.467 -1.08 -7.797 1.138 c -0.459 0.306 -0.583 0.927 -0.277 1.387 c 0.192 0.29 0.509 0.446 0.832 0.446 c 0.19 0 0.383 -0.055 0.554 -0.168 c 1.092 -0.729 2.362 -0.995 3.468 -1.061 c -0.009 0.076 -0.023 0.151 -0.023 0.229 c 0 1.104 0.896 2 2 2 s 2 -0.896 2 -2 c 0 -0.212 -0.042 -0.412 -0.103 -0.604 z m 11.999 -0.001 c 0.023 -0.052 0.059 -0.095 0.073 -0.152 c 0.135 -0.536 -0.191 -1.079 -0.727 -1.213 c -0.18 -0.045 -4.466 -1.08 -7.797 1.138 c -0.46 0.306 -0.584 0.927 -0.277 1.387 c 0.192 0.289 0.51 0.445 0.833 0.445 c 0.19 0 0.383 -0.055 0.554 -0.168 c 1.092 -0.729 2.361 -0.994 3.469 -1.06 c -0.009 0.076 -0.024 0.15 -0.024 0.228 c 0 1.104 0.896 2 2 2 s 2 -0.896 2 -2 c 0 -0.212 -0.042 -0.413 -0.104 -0.605 z"/>
</svg>
