<svg xmlns="http://www.w3.org/2000/svg" viewBox="0 0 36 36"><path fill="#664500" d="M16.664 10.543c-.207-.09-.451-.03-.592.148-.009.012-.979 1.202-3.335 1.844-.775.212-1.531.319-2.245.319-.992 0-1.559-.212-1.562-.213-.21-.085-.453-.014-.587.169-.135.184-.128.435.016.612.071.087 1.78 2.147 4.125 2.147.351 0 .702-.047 1.043-.14 2.854-.778 3.41-4.208 3.432-4.354.034-.223-.087-.441-.295-.532zm10.975 2.155c-.138-.181-.38-.245-.59-.159-.006.003-.633.256-1.737.256-.661 0-1.358-.089-2.073-.265-2.369-.583-3.369-1.749-3.377-1.758-.146-.176-.388-.233-.596-.137-.207.095-.323.318-.283.542.026.145.668 3.56 3.539 4.267.311.077.629.116.946.116 2.396 0 4.099-2.16 4.17-2.252.138-.181.137-.43.001-.61zM9.998 "/></svg>
