<svg xmlns="http://www.w3.org/2000/svg" viewBox="0 0 36 36">
  <ellipse fill="#664500" cx="11.5" cy="15.5" rx="2.5" ry="3.5"/>
  <path fill="#664500" d="M 28.457 17.797 c -0.06 -0.135 -1.499 -3.297 -4.457 -3.297 c -2.957 0 -4.397 3.162 -4.457 3.297 c -0.092 0.207 -0.032 0.449 0.145 0.591 c 0.175 0.142 0.426 0.147 0.61 0.014 c 0.012 -0.009 1.262 -0.902 3.702 -0.902 c 2.426 0 3.674 0.881 3.702 0.901 c 0.088 0.066 0.194 0.099 0.298 0.099 c 0.11 0 0.221 -0.037 0.312 -0.109 c 0.177 -0.142 0.238 -0.386 0.145 -0.594 z z z z"/>
</svg>
