<svg xmlns="http://www.w3.org/2000/svg" viewBox="0 0 36 36"><path fill="#664500" d="
  M6.999 17c-.15 0-.303-.034-.446-.105-.494-.247-.694-.848-.447-1.342C6.158 15.448 7.424 13 11 13c3.577 0 4.842 2.449 4.894 2.553.247.494.046 1.095-.447 1.342-.491.247-1.085.049-1.336-.436C14.067 16.378 13.28 15 11 15c-2.317 0-3.099 1.433-3.106 1.447-.175.351-.528.553-.895.553z
  M29 17c.15 0 .303-.034.446-.105.494-.247.694-.848.447-1.342-.052-.105-1.318-2.553-4.894-2.553-3.577 0-4.842 2.449-4.894 2.553-.247.494-.046 1.095.447 1.342.491.247 1.085.049 1.336-.436.044-.081.831-1.459 3.111-1.459 2.317 0 3.099 1.433 3.106 1.447.175.351.528.553.895.553z
  "/></svg>
