<svg xmlns="http://www.w3.org/2000/svg" viewBox="0 0 36 36">
  <path fill="#664500" d="M 28.457 17.797 z M 5.999 11 z m 23.002 3 z m -8.922 13.042 c 1.335 -0.412 2.629 -1.156 2.629 -2.5 c 0 -2.619 -4.912 -2.968 -5.472 -2.999 c -0.274 -0.026 -0.509 0.193 -0.527 0.468 c -0.017 0.274 0.19 0.511 0.464 0.53 c 0.035 0.002 3.535 0.299 3.535 2.001 s -3.5 1.999 -3.535 2.001 c -0.014 0.001 -0.024 0.009 -0.037 0.011 c -0.052 0.006 -0.101 0.018 -0.146 0.04 l -0.019 0.011 c -0.047 0.026 -0.088 0.057 -0.125 0.098 c -0.014 0.015 -0.024 0.031 -0.036 0.048 c -0.023 0.032 -0.044 0.063 -0.059 0.102 c -0.012 0.029 -0.018 0.061 -0.024 0.092 c -0.004 0.023 -0.016 0.044 -0.018 0.067 c 0 0.011 0.004 0.021 0.004 0.031 s -0.005 0.021 -0.004 0.031 c 0.001 0.024 0.013 0.045 0.018 0.068 c 0.006 0.031 0.011 0.061 0.023 0.09 c 0.013 0.03 0.031 0.057 0.049 0.084 c 0.017 0.024 0.032 0.05 0.052 0.071 c 0.023 0.023 0.05 0.041 0.078 0.061 c 0.024 0.017 0.046 0.034 0.074 0.047 c 0.032 0.015 0.066 0.021 0.101 0.027 c 0.024 0.006 0.044 0.018 0.069 0.02 c 0.035 0.002 3.535 0.299 3.535 2.001 s -3.5 1.999 -3.535 2.001 c -0.274 0.02 -0.481 0.257 -0.464 0.53 c 0.017 0.265 0.237 0.469 0.499 0.469 l 0.028 -0.001 c 0.56 -0.031 5.472 -0.38 5.472 -2.999 c 0 -1.345 -1.294 -2.089 -2.629 -2.501 z"/>
  <path fill="#DD2E44" d="M35.654 27.222c.739-1.516.11-3.347-1.405-4.086-.922-.449-1.956-.391-2.793.06-.16-.936-.75-1.789-1.67-2.237-1.517-.74-3.348-.109-4.087 1.406-.105.215-.18.437-.23.659-.774 2.556.64 6.341 2.192 7.948 2.223.234 6.077-.979 7.615-3.161.145-.179.273-.374.378-.589z"/>
</svg>
