<svg xmlns="http://www.w3.org/2000/svg" viewBox="0 0 36 36">
  <path fill="#664500" d="M 6.999 17 z M 29 17 z m 0.503 6.52 c 0.323 -0.749 0.461 -1.257 0.466 -1.277 c 0.134 -0.534 -0.19 -1.075 -0.725 -1.21 c -0.536 -0.136 -1.077 0.188 -1.215 0.723 C 27.955 22.051 26.081 29 18 29 s -9.955 -6.949 -10.03 -7.245 c -0.138 -0.534 -0.679 -0.858 -1.215 -0.723 c -0.534 0.135 -0.858 0.676 -0.725 1.21 C 6.052 22.33 8.331 31 18 31 c 1.65 0 3.07 -0.266 4.315 -0.685 c 4.33 -1.458 6.374 -4.91 7.188 -6.795 z"/>
  <path fill="#E75A70" d="M33.175 27.309l-3.671-3.789c-.814 1.885-2.858 5.337-7.189 6.795L26 34c1.728 1.728 5 2 7 0s1.903-4.962.175-6.691z"/>
</svg>
